# xmcd
#
# Track frame offsets: 
#        150
#        23037
#        41825
#        62825
#        82910
#        100854
#        121935
#        150585
#        171392
#        191645
#        212720
#        232965
#        250392
#        271515
#        293937
#        312572
#
# Disc length: 4517 seconds
#
# Revision: 1
# Processed by: cddbd v1.5.2PL0 Copyright (c) Steve Scherf et al.
# Submitted via: ExactAudioCopy v0.99pb5
#
DISCID=dc11a310
DTITLE=Various Artist - 동감 2 CD5 순수
DYEAR=2002
DGENRE=Kpop
TTITLE0=이현우 - 슬픔속에 그댈 지워야만 해
TTITLE1=장혜진 - 아름다운 날들
TTITLE2=김범수 - 눈물과 바꾼 사랑
TTITLE3=ECO - 언제까지나
TTITLE4=김조한 - LOVE OF MY LIFE
TTITLE5=내추럴 - 그녀의 집 앞에서
TTITLE6=패닉 - 내 낡은 서랍속의 바다
TTITLE7=TOY - 나 마음 속에
TTITLE8=BLUE - BECAUSE OF YOU
TTITLE9=SPACE A - AGAIN
TTITLE10=컨추리 꼬꼬 - 너에게 나를
TTITLE11=양파 - BLOOMING
TTITLE12=페이지 - 마지막 너를 보내며
TTITLE13=조관우 - 겨울 이야기
TTITLE14=이은미 - DEJA-VU
TTITLE15=이상은 - 새
EXTD=
EXTT0=
EXTT1=
EXTT2=
EXTT3=
EXTT4=
EXTT5=
EXTT6=
EXTT7=
EXTT8=
EXTT9=
EXTT10=
EXTT11=
EXTT12=
EXTT13=
EXTT14=
EXTT15=
PLAYORDER=
